<?xml version="1.0" encoding="utf-8"?>
<!-- Generator: Adobe Illustrator 22.1.0, SVG Export Plug-In . SVG Version: 6.00 Build 0)  -->
<svg version="1.1" id="Calque_1" xmlns="http://www.w3.org/2000/svg" xmlns:xlink="http://www.w3.org/1999/xlink" x="0px" y="0px"
	 viewBox="0 0 300 300" style="enable-background:new 0 0 300 300;" xml:space="preserve">
<style type="text/css">
	.st0{opacity:0.54;fill:#FFFFFF;}
	.st1{fill:#9E0017;}
	.st2{fill:#FFFFFF;}
</style>
<rect x="0.3" y="1" class="st0" width="300.1" height="300.1"/>
<g>
	<g>
		<path d="M28.4,145.4H17.8v14.9H9.3V123c0-2.4,1.9-4.5,4.3-4.5h14.2c8.8,0,13.4,4.7,13.4,13.4C41.2,140.1,36.7,145.4,28.4,145.4
			 M26.2,137.8c4.3,0.1,6.4-2,6.4-6c0-4.1-2-6.1-6-6.1h-8.7v12.1H26.2z"/>
		<path d="M56.5,136.2h-8.2c1-6,5.2-9,12.7-9c9,0,13.5,2.9,13.7,9v11c0,9-5.4,13-14.2,13.6c-7.8,0.6-13.2-3-13.2-10.2
			c0.2-7.8,5.8-9.9,14.1-10.7c3.5-0.4,5.3-1.5,5.3-3.3c-0.2-1.8-1.9-2.8-5.3-2.8C58.5,133.9,56.9,134.7,56.5,136.2 M66.8,146.9v-3
			c-1.9,0.8-4.1,1.5-6.5,2c-3.3,0.6-4.9,2.1-4.9,4.5c0.2,2.6,1.5,3.8,4.1,3.8C64,154.2,66.8,151.5,66.8,146.9"/>
		<path d="M91.1,122.5v37.7h-8.2v-41.7h4.2C89.3,118.5,91.1,120.3,91.1,122.5"/>
		<path d="M107,139.5v20.7h-8.3v-19.1c0-9.3,4.7-13.9,13.9-13.9c4.2,0,7.4,0.9,9.7,2.8c2.3-1.8,5.5-2.6,9.7-2.6
			c9.3,0,13.9,4.6,13.8,13.9v19.1h-4.2c-2.7-0.2-4.1-1.5-4.1-4v-16.7c-0.2-3.4-2-5-5.6-5c-3.6,0-5.5,1.7-5.5,5v20.6h-8.2v-20.7
			c-0.2-3.4-2-5-5.6-5C108.9,134.4,107.1,136.1,107,139.5"/>
		<path d="M168.2,160.9c-9.8-0.3-14.7-6-14.7-17.1c0-11,5-16.6,14.9-16.6c10.3,0,15.2,6.3,14.5,19h-21c0.3,5,2.5,7.5,6.4,7.5
			c1.9,0,3.7-0.8,5.3-2.3c0.7-0.8,1.7-1.2,2.8-1.2h6C180.6,157.1,176.1,160.9,168.2,160.9 M162,140.4h12.2c-0.5-4.3-2.5-6.5-6-6.5
			C164.7,133.9,162.6,136.1,162,140.4"/>
		<path d="M189.7,143.5c0.2-10.5,5.8-15.7,16.7-15.7h1.2v8.5h-2.8c-4.5,0-6.8,2.4-6.8,7.1v16.9h-8.3V143.5z"/>
		<path d="M222.8,136.2h-8.2c1-6,5.2-9,12.7-9c9,0,13.5,2.9,13.7,9v11c0,9-5.4,13-14.2,13.6c-7.8,0.6-13.2-3-13.2-10.2
			c0.2-7.8,5.8-9.9,14.1-10.7c3.5-0.4,5.3-1.5,5.3-3.3c-0.2-1.8-1.9-2.8-5.3-2.8C224.9,133.9,223.3,134.7,222.8,136.2 M233.1,146.9
			v-3c-1.9,0.8-4.1,1.5-6.5,2c-3.3,0.6-4.9,2.1-4.9,4.5c0.2,2.6,1.5,3.8,4.1,3.8C230.4,154.2,233.1,151.5,233.1,146.9"/>
		<path d="M252.3,118.5c2.7,0,4,1.3,3.9,4v2.4H248v-6.4H252.3z M252.3,127.7c2.6,0,3.9,1.3,3.9,3.9v28.5H248v-32.5H252.3z"/>
		<path d="M278.4,160.9c-9.8-0.3-14.7-6-14.7-17.1c0-11,5-16.6,14.9-16.6c10.3,0,15.2,6.3,14.5,19h-21c0.3,5,2.5,7.5,6.4,7.5
			c1.9,0,3.7-0.8,5.3-2.3c0.7-0.8,1.7-1.2,2.8-1.2h6C290.8,157.1,286.3,160.9,278.4,160.9 M272.2,140.4h12.2c-0.5-4.3-2.5-6.5-6-6.5
			C274.9,133.9,272.8,136.1,272.2,140.4"/>
		<path d="M143.9,184.5c-0.3,0-0.5-0.2-0.5-0.5v-83.8c0-15.3,12.5-27.8,27.8-27.8c15.3,0,27.8,12.5,27.8,27.8c0,0.3-0.2,0.5-0.5,0.5
			c-0.3,0-0.5-0.2-0.5-0.5c0-14.8-12-26.8-26.8-26.8c-14.8,0-26.8,12-26.8,26.8V184C144.4,184.3,144.2,184.5,143.9,184.5"/>
		<path d="M149.8,177.6c-0.3,0-0.5-0.2-0.5-0.5V100c0-12.1,9.8-21.9,21.9-21.9c12.1,0,21.9,9.8,21.9,21.9c0,0.3-0.2,0.5-0.5,0.5
			c-0.3,0-0.5-0.2-0.5-0.5c0-11.5-9.4-20.9-20.9-20.9c-11.5,0-20.9,9.4-20.9,20.9v77.1C150.3,177.4,150,177.6,149.8,177.6"/>
		<path d="M155.1,196c-0.3,0-0.5-0.2-0.5-0.5v-95.2c0-9.1,7.4-16.5,16.5-16.5s16.5,7.4,16.5,16.5c0,0.3-0.2,0.5-0.5,0.5
			c-0.3,0-0.5-0.2-0.5-0.5c0-8.6-7-15.6-15.6-15.6c-8.6,0-15.6,7-15.6,15.6v95.2C155.6,195.8,155.4,196,155.1,196"/>
		<path d="M143.9,105.9c-0.3,0-0.5-0.2-0.5-0.5c0-8.5-6.9-15.4-15.4-15.4c-0.3,0-0.5-0.2-0.5-0.5c0-0.3,0.2-0.5,0.5-0.5
			c9,0,16.4,7.3,16.4,16.4C144.3,105.7,144.1,105.9,143.9,105.9"/>
		<path d="M143.9,111.8c-0.3,0-0.5-0.2-0.5-0.5c0-8.5-6.9-15.4-15.4-15.4c-0.3,0-0.5-0.2-0.5-0.5c0-0.3,0.2-0.5,0.5-0.5
			c9,0,16.4,7.3,16.4,16.4C144.3,111.5,144.1,111.8,143.9,111.8"/>
		<path d="M143.9,117.6c-0.3,0-0.5-0.2-0.5-0.5c0-8.5-6.9-15.4-15.4-15.4c-0.3,0-0.5-0.2-0.5-0.5c0-0.3,0.2-0.5,0.5-0.5
			c9,0,16.4,7.3,16.4,16.4C144.3,117.4,144.1,117.6,143.9,117.6"/>
	</g>
	<rect x="6" y="172.8" class="st1" width="288" height="26.4"/>
	<g>
		<path class="st2" d="M18.8,192.9V179h2.3v13.9H18.8z"/>
		<path class="st2" d="M52.1,182.8l-4.1,6h-0.5l-4-6v10.1h-2.4V179h2.7l3.9,6l3.9-6h2.7v13.9h-2.4V182.8z"/>
		<path class="st2" d="M85.4,182.8l-4.1,6h-0.5l-4-6v10.1h-2.4V179h2.7l3.9,6l3.9-6h2.7v13.9h-2.4V182.8z"/>
		<path class="st2" d="M120.2,186c0,3.6-2,7.2-6.4,7.2c-4.4,0-6.4-3.5-6.4-7.2c0-3.6,2.1-7.3,6.4-7.3
			C118.1,178.7,120.2,182.4,120.2,186z M109.6,186.1c0.1,2.3,1.2,4.7,4.1,4.7c2.9,0,4.1-2.5,4.1-4.7c0-2.3-1.1-5-4.1-5
			C110.8,181.1,109.6,183.7,109.6,186.1z"/>
		<path class="st2" d="M149.9,183c0,1.1-0.5,2.1-1.6,2.7c1.5,0.5,2,2.2,2,3.1c0,3.1-2.1,4.1-4.7,4.1c-2,0-3.9,0-5.9,0V179
			c2,0,3.9,0,5.9,0C148.1,179,149.9,180.2,149.9,183z M142,184.6h3.6c1.5,0,2-0.7,2-1.5c0-0.6-0.5-1.7-2-1.7H142V184.6z M142,190.4
			h3.6c1,0,2.3-0.4,2.3-1.7c0-1.2-1.4-1.9-2.3-1.9H142V190.4z"/>
		<path class="st2" d="M169.8,192.9V179h2.3v13.9H169.8z"/>
		<path class="st2" d="M194.6,179v11.5h6.4v2.4h-8.8V179H194.6z"/>
		<path class="st2" d="M220.6,192.9V179h2.3v13.9H220.6z"/>
		<path class="st2" d="M252.3,192.9H243c0-4.6,0-9.3,0-13.9h9.4v2.5h-7v3.2h6.8v2.4h-6.8v3.1h7V192.9z"/>
		<path class="st2" d="M283.1,192.9h-2.8l-3.6-4.6h-2.3v4.6H272V179c2,0,4,0,5.9,0c2.9,0,4.5,2.2,4.5,4.6c0,1.9-0.8,3.8-3.2,4.4
			l3.8,4.7V192.9z M274.4,181.4v4.4h3.6c1.5,0,2.1-1.1,2.1-2.2c0-1.1-0.7-2.2-2.1-2.2H274.4z"/>
	</g>
</g>
</svg>
